Coordinates
version=1
nRows=5
nColumns=42
inDegrees=yes

Units are S.I. units (second, meters, Newtons, ...)
If the header above contains a line with 'inDegrees', this indicates whether rotational values are in degrees (yes) or radians (no).

endheader
time	pelvis_tilt	pelvis_list	pelvis_rotation	pelvis_tx	pelvis_ty	pelvis_tz	hip_flexion_r	hip_adduction_r	hip_rotation_r	knee_angle_r	knee_adduction_r	knee_angle_r_beta	ankle_angle_r	subtalar_angle_r	mtp_angle_r	hip_flexion_l	hip_adduction_l	hip_rotation_l	knee_angle_l	knee_adduction_l	knee_angle_l_beta	ankle_angle_l	subtalar_angle_l	mtp_angle_l	lumbar_extension	lumbar_bending	lumbar_rotation	arm_flex_r	arm_add_r	arm_rot_r	elbow_flex_r	pro_sup_r	wrist_flex_r	wrist_dev_r	arm_flex_l	arm_add_l	arm_rot_l	elbow_flex_l	pro_sup_l	wrist_flex_l	wrist_dev_l
      1.07000000	     14.64144623	      5.00304296	      0.04577221	     -0.23069012	      0.93717100	     -0.27624434	     12.94867899	     -3.04085955	     -0.99553476	     37.07269723	     -0.16454923	      0.64704063	      7.12191418	    -12.27935121	     -7.72470517	    -17.43654915	     13.70249292	    -19.96401522	     11.44928679	     -6.30224761	      0.19982775	     21.51047354	     22.28121045	     -7.72470517	    -45.35223908	     -7.28533845	     -2.22521360	      1.77294294	     -8.55713499	      9.21480222	     40.29614223	     90.00000001	      0.00000000	      0.00000000	     -4.47645933	    -13.92052650	     17.58360579	     47.75680874	     90.00000001	      0.00000000	      0.00000000
      1.08000000	     14.67075986	      5.10580828	     -0.22560973	     -0.22490044	      0.93626172	     -0.27593841	     13.15078241	     -2.95208784	     -1.76476727	     34.84685512	     -0.62576259	      0.60819236	      7.71971230	    -10.58568345	     -7.71535448	    -18.27069219	     13.99354428	    -19.77240006	     10.72761524	     -6.20229991	      0.18723221	     21.47046909	     22.04362477	     -7.71535448	    -45.31413547	     -7.46864759	     -2.09613433	      1.70821604	     -8.56567348	      9.22254097	     40.38266075	     90.00000001	      0.00000000	      0.00000000	     -4.59586487	    -13.94512117	     17.64167642	     47.69480732	     90.00000001	      0.00000000	      0.00000000
      1.09000000	     14.68504397	      5.23033248	     -0.52857972	     -0.21901736	      0.93521004	     -0.27550986	     13.35344488	     -2.86083071	     -2.54794962	     32.69529749	     -1.09742673	      0.57064059	      8.39192115	     -8.69830057	     -7.70553229	    -19.05207110	     14.30868720	    -19.67493716	     10.07717542	     -6.12837199	      0.17587989	     21.49827909	     21.94910336	     -7.70553229	    -45.23869224	     -7.69547457	     -1.95167167	      1.62026334	     -8.55374839	      9.21196535	     40.42155258	     90.00000001	      0.00000000	      0.00000000	     -4.70315891	    -13.98170401	     17.70691994	     47.60241398	     90.00000001	      0.00000000	      0.00000000
      1.10000000	     14.49018640	      5.43207716	     -0.92563946	     -0.21336383	      0.93361599	     -0.27496037	     13.85926482	     -2.81544829	     -2.81278789	     30.75074694	     -1.35660021	      0.53670178	      8.72954936	     -7.62326297	     -7.70218682	    -19.44112185	     14.78009989	    -19.77608794	      9.60780632	     -6.22330836	      0.16768785	     21.71836311	     21.97789071	     -7.70218682	    -44.95543858	     -8.05501396	     -1.78296998	      1.58664911	     -8.52534440	      9.22052171	     40.34701539	     90.00000001	      0.00000000	      0.00000000	     -4.76898736	    -14.01158488	     17.77214513	     47.45344395	     90.00000001	      0.00000000	      0.00000000
      1.11000000	     14.66029714	      5.50273161	     -1.14881656	     -0.20711943	      0.93270788	     -0.27466044	     13.77954622	     -2.71587918	     -4.43333195	     28.67402308	     -2.09162050	      0.50045611	      9.83263916	     -4.25020448	     -7.69106463	    -20.46310218	     14.93142033	    -19.65223307	      8.95446963	     -5.96221713	      0.15628498	     21.70319555	     21.98117472	     -7.69106463	    -45.01955849	     -8.14670964	     -1.64531188	      1.46839093	     -8.54595245	      9.16823841	     40.45565880	     90.00000001	      0.00000000	      0.00000000	     -4.88288164	    -14.03449243	     17.88220341	     47.40866475	     90.00000001	      0.00000000	      0.00000000
